<svg id="Calque_1" data-name="Calque 1" xmlns="http://www.w3.org/2000/svg" viewBox="0 0 713.23 841.76">
    <defs>
        <style>.cls-1{fill:#ef4445;}.cls-2{fill:#010101;}.cls-3{fill:#231f20;}</style>
    </defs>
    <title>logo</title>
    <path class="cls-1"
          d="M644.41,193.73a204.18,204.18,0,0,0-288.77,0c-71.91,71.9-80.77,207.27-19,289.68L500,719.28,663.1,483.76C725.18,401,716.32,265.63,644.41,193.73ZM502.13,419.21A83.21,83.21,0,1,1,585.34,336,83.3,83.3,0,0,1,502.13,419.21Z"
          transform="translate(-143.38 -85.32)"/>
    <path class="cls-2"
          d="M502.13,252.79A83.21,83.21,0,1,0,585.34,336,83.31,83.31,0,0,0,502.13,252.79Zm0,142.65A59.44,59.44,0,1,1,561.56,336,59.5,59.5,0,0,1,502.13,395.44Z"
          transform="translate(-143.38 -85.32)"/>
    <polygon points="356.64 675.74 359.59 671.48 353.69 671.48 356.64 675.74"/>
    <path d="M661.21,176.93a227.94,227.94,0,0,0-322.38,0c-79.68,79.67-89.57,229.55-21.44,320.38L497.08,756.8H503L682.39,497.67C750.78,406.48,740.89,256.6,661.21,176.93ZM500,719.28,336.68,483.41c-61.81-82.41-52.95-217.78,19-289.68a204.18,204.18,0,0,1,288.77,0c71.91,71.9,80.77,207.27,18.69,290Z"
          transform="translate(-143.38 -85.32)"/>
    <path class="cls-2"
          d="M644,618.86a11.89,11.89,0,1,0-2.78,23.61c125,14.71,191.58,54.37,191.58,77.35,0,32.26-126.62,77.26-332.84,77.26s-332.84-45-332.84-77.26c0-23,66.58-62.64,191.58-77.35A11.89,11.89,0,1,0,356,618.86c-125.16,14.74-212.58,56.25-212.58,101,0,50.21,122.5,101,356.62,101s356.62-50.83,356.62-101C856.62,675.11,769.2,633.6,644,618.86Z"
          transform="translate(-143.38 -85.32)"/>
    <path class="cls-2" d="M220.49,186a14.1,14.1,0,1,0,19.26,5.17A14.22,14.22,0,0,0,220.49,186Z"
          transform="translate(-143.38 -85.32)"/>
    <path class="cls-2"
          d="M169.16,92.33c-21.42,12.37-23.93,30.73-19,39.3,3.57,6.19,10.45,6,14.74,3.55,8.56-5-2-15.15,14.2-24.49,7.93-4.58,16.29-4.75,20.51,2.54,4.94,8.57-1.1,18.62-3.77,26.08-2.31,6.62-4.59,16.61,3.29,30.25,4.76,8.25,8.36,9.34,14.86,5.59,7.77-4.49,7.35-8.89,5.61-11.91-4.77-8.25-7.36-13.1-2.57-25,2.36-5.81,9.62-24.38,1-39.29S189.46,80.61,169.16,92.33Z"
          transform="translate(-143.38 -85.32)"/>
    <path class="cls-2" d="M166.44,517.38a14.11,14.11,0,0,0-14.11,24.43,14.11,14.11,0,0,0,14.11-24.43Z"
          transform="translate(-143.38 -85.32)"/>
    <path class="cls-2"
          d="M221.89,426.09c-21.41-12.37-38.57-5.35-43.52,3.21-3.57,6.19,0,12.07,4.3,14.54,8.57,5,12.13-9.28,28.31.06,7.93,4.58,12.26,11.73,8.05,19-4.95,8.56-16.67,8.35-24.47,9.77-6.89,1.31-16.67,4.33-24.55,18-4.76,8.25-3.91,11.91,2.59,15.66,7.77,4.49,11.37,1.92,13.11-1.1,4.77-8.25,7.67-12.91,20.33-14.7,6.21-.86,25.92-3.86,34.53-18.77S242.2,437.81,221.89,426.09Z"
          transform="translate(-143.38 -85.32)"/>
    <path class="cls-2" d="M768.24,183.29a14.11,14.11,0,0,0-14.11,24.43,14.11,14.11,0,0,0,14.11-24.43Z"
          transform="translate(-143.38 -85.32)"/>
    <path class="cls-2"
          d="M823.69,92c-21.41-12.36-38.58-5.35-43.52,3.21-3.57,6.19,0,12.07,4.3,14.54,8.56,5,12.13-9.28,28.31.06,7.93,4.58,12.26,11.73,8,19-4.94,8.56-16.66,8.35-24.46,9.77-6.89,1.31-16.68,4.34-24.55,18-4.76,8.25-3.92,11.91,2.59,15.66,7.77,4.49,11.37,1.92,13.11-1.1,4.76-8.24,7.67-12.91,20.33-14.7,6.21-.85,25.92-3.86,34.53-18.77S844,103.72,823.69,92Z"
          transform="translate(-143.38 -85.32)"/>
    <path class="cls-2" d="M822.29,517.4a14.1,14.1,0,0,0,14.1,24.43,14.1,14.1,0,0,0-14.1-24.43Z"
          transform="translate(-143.38 -85.32)"/>
    <path class="cls-2"
          d="M771,423.73C749.54,436.09,747,454.46,752,463c3.57,6.19,10.45,6,14.73,3.55,8.57-4.95-2-15.15,14.21-24.49,7.93-4.58,16.29-4.76,20.5,2.54,5,8.57-1.09,18.61-3.77,26.08-2.31,6.62-4.58,16.6,3.3,30.25,4.76,8.24,8.35,9.34,14.86,5.59,7.77-4.49,7.34-8.9,5.6-11.91-4.76-8.25-7.35-13.1-2.56-25,2.36-5.8,9.61-24.37,1-39.28S791.26,412,771,423.73Z"
          transform="translate(-143.38 -85.32)"/>
</svg>