<svg id="Calque_1" data-name="Calque 1" xmlns="http://www.w3.org/2000/svg" viewBox="0 0 713.23 841.76"><defs><style>.cls-1{fill:#ef4445;}.cls-2{fill:#010101;}.cls-3{fill:#231f20;}</style></defs><title>logo</title><path class="cls-1" d="M644.41,193.73a204.18,204.18,0,0,0-288.77,0c-71.91,71.9-80.77,207.27-19,289.68L500,719.28,663.1,483.76C725.18,401,716.32,265.63,644.41,193.73ZM502.13,419.21A83.21,83.21,0,1,1,585.34,336,83.3,83.3,0,0,1,502.13,419.21Z" transform="translate(-143.38 -85.32)"/><path class="cls-2" d="M502.13,252.79A83.21,83.21,0,1,0,585.34,336,83.31,83.31,0,0,0,502.13,252.79Zm0,142.65A59.44,59.44,0,1,1,561.56,336,59.5,59.5,0,0,1,502.13,395.44Z" transform="translate(-143.38 -85.32)"/><polygon points="356.64 675.74 359.59 671.48 353.69 671.48 356.64 675.74"/><path d="M661.21,176.93a227.94,227.94,0,0,0-322.38,0c-79.68,79.67-89.57,229.55-21.44,320.38L497.08,756.8H503L682.39,497.67C750.78,406.48,740.89,256.6,661.21,176.93ZM500,719.28,336.68,483.41c-61.81-82.41-52.95-217.78,19-289.68a204.18,204.18,0,0,1,288.77,0c71.91,71.9,80.77,207.27,18.69,290Z" transform="translate(-143.38 -85.32)"/><path class="cls-2" d="M644,618.86a11.89,11.89,0,1,0-2.78,23.61c125,14.71,191.58,54.37,191.58,77.35,0,32.26-126.62,77.26-332.84,77.26s-332.84-45-332.84-77.26c0-23,66.58-62.64,191.58-77.35A11.89,11.89,0,1,0,356,618.86c-125.16,14.74-212.58,56.25-212.58,101,0,50.21,122.5,101,356.62,101s356.62-50.83,356.62-101C856.62,675.11,769.2,633.6,644,618.86Z" transform="translate(-143.38 -85.32)"/><path class="cls-2" d="M220.49,186a14.1,14.1,0,1,0,19.26,5.17A14.22,14.22,0,0,0,220.49,186Z" transform="translate(-143.38 -85.32)"/><path class="cls-2" d="M169.16,92.33c-21.42,12.37-23.93,30.73-19,39.3,3.57,6.19,10.45,6,14.74,3.55,8.56-5-2-15.15,14.2-24.49,7.93-4.58,16.29-4.75,20.51,2.54,4.94,8.57-1.1,18.62-3.77,26.08-2.31,6.62-4.59,16.61,3.29,30.25,4.76,8.25,8.36,9.34,14.86,5.59,7.77-4.49,7.35-8.89,5.61-11.91-4.77-8.25-7.36-13.1-2.57-25,2.36-5.81,9.62-24.38,1-39.29S189.46,80.61,169.16,92.33Z" transform="translate(-143.38 -85.32)"/><path class="cls-2" d="M166.44,517.38a14.11,14.11,0,0,0-14.11,24.43,14.11,14.11,0,0,0,14.11-24.43Z" transform="translate(-143.38 -85.32)"/><path class="cls-2" d="M221.89,426.09c-21.41-12.37-38.57-5.35-43.52,3.21-3.57,6.19,0,12.07,4.3,14.54,8.57,5,12.13-9.28,28.31.06,7.93,4.58,12.26,11.73,8.05,19-4.95,8.56-16.67,8.35-24.47,9.77-6.89,1.31-16.67,4.33-24.55,18-4.76,8.25-3.91,11.91,2.59,15.66,7.77,4.49,11.37,1.92,13.11-1.1,4.77-8.25,7.67-12.91,20.33-14.7,6.21-.86,25.92-3.86,34.53-18.77S242.2,437.81,221.89,426.09Z" transform="translate(-143.38 -85.32)"/><path class="cls-2" d="M768.24,183.29a14.11,14.11,0,0,0-14.11,24.43,14.11,14.11,0,0,0,14.11-24.43Z" transform="translate(-143.38 -85.32)"/><path class="cls-2" d="M823.69,92c-21.41-12.36-38.58-5.35-43.52,3.21-3.57,6.19,0,12.07,4.3,14.54,8.56,5,12.13-9.28,28.31.06,7.93,4.58,12.26,11.73,8,19-4.94,8.56-16.66,8.35-24.46,9.77-6.89,1.31-16.68,4.34-24.55,18-4.76,8.25-3.92,11.91,2.59,15.66,7.77,4.49,11.37,1.92,13.11-1.1,4.76-8.24,7.67-12.91,20.33-14.7,6.21-.85,25.92-3.86,34.53-18.77S844,103.72,823.69,92Z" transform="translate(-143.38 -85.32)"/><path class="cls-2" d="M822.29,517.4a14.1,14.1,0,0,0,14.1,24.43,14.1,14.1,0,0,0-14.1-24.43Z" transform="translate(-143.38 -85.32)"/><path class="cls-2" d="M771,423.73C749.54,436.09,747,454.46,752,463c3.57,6.19,10.45,6,14.73,3.55,8.57-4.95-2-15.15,14.21-24.49,7.93-4.58,16.29-4.76,20.5,2.54,5,8.57-1.09,18.61-3.77,26.08-2.31,6.62-4.58,16.6,3.3,30.25,4.76,8.24,8.35,9.34,14.86,5.59,7.77-4.49,7.34-8.9,5.6-11.91-4.76-8.25-7.35-13.1-2.56-25,2.36-5.8,9.61-24.37,1-39.28S791.26,412,771,423.73Z" transform="translate(-143.38 -85.32)"/><path class="cls-3" d="M338.23,891.39v13.72a14.72,14.72,0,0,1-.53,4.37,7,7,0,0,1-2,2.95A18.37,18.37,0,0,1,332,915a57.36,57.36,0,0,1-12.5,5.13,50.5,50.5,0,0,1-13.08,1.61,42.64,42.64,0,0,1-15-2.54,31.61,31.61,0,0,1-11.58-7.37,32.39,32.39,0,0,1-7.34-11.72,43.8,43.8,0,0,1-2.57-15.38,44.89,44.89,0,0,1,2.49-15.28,31.22,31.22,0,0,1,7.33-11.77,32.17,32.17,0,0,1,11.76-7.4,45.17,45.17,0,0,1,15.73-2.56A38.9,38.9,0,0,1,320,849.62a28.07,28.07,0,0,1,9,4.85,21.81,21.81,0,0,1,5.23,6.21,12.59,12.59,0,0,1,1.76,5.81,6.21,6.21,0,0,1-2,4.66,6.78,6.78,0,0,1-4.86,1.93,6.64,6.64,0,0,1-3-.73,6.85,6.85,0,0,1-2.42-2.06,57.77,57.77,0,0,0-4.54-6.34,14.79,14.79,0,0,0-5-3.62,19.18,19.18,0,0,0-8-1.46,22.23,22.23,0,0,0-9,1.73,18.53,18.53,0,0,0-6.76,5,22.53,22.53,0,0,0-4.3,8.08,35.68,35.68,0,0,0-1.49,10.6q0,12.6,5.79,19.38t16.13,6.79a32.85,32.85,0,0,0,9.45-1.32,47.73,47.73,0,0,0,9-3.76V893.78H313.72a12.27,12.27,0,0,1-6.13-1.22,4.42,4.42,0,0,1-2.07-4.15,5.1,5.1,0,0,1,1.73-3.95,6.75,6.75,0,0,1,4.71-1.57h16.46a20.76,20.76,0,0,1,5.12.54,5.82,5.82,0,0,1,3.4,2.39A9.82,9.82,0,0,1,338.23,891.39Z" transform="translate(-143.38 -85.32)"/><path class="cls-3" d="M388.33,897.88H362.26a17.64,17.64,0,0,0,1.83,8,12.2,12.2,0,0,0,11.25,7,15.74,15.74,0,0,0,4.37-.56,13.9,13.9,0,0,0,3.83-1.76A28.21,28.21,0,0,0,387,908c1-.91,2.4-2.15,4.06-3.71a4.35,4.35,0,0,1,2.93-.88,4.89,4.89,0,0,1,3.32,1.12,4,4,0,0,1,1.27,3.18,8.72,8.72,0,0,1-1.42,4.22,16.92,16.92,0,0,1-4.27,4.64,24.54,24.54,0,0,1-7.18,3.69,31.09,31.09,0,0,1-9.94,1.46q-12.84,0-20-7.32t-7.13-19.88a33.23,33.23,0,0,1,1.76-11,24.11,24.11,0,0,1,5.13-8.67,22.31,22.31,0,0,1,8.3-5.54,29.92,29.92,0,0,1,10.94-1.93,25.93,25.93,0,0,1,13.4,3.3,21.65,21.65,0,0,1,8.37,8.52,22.35,22.35,0,0,1,2.79,10.65q0,5-2.88,6.51A17.91,17.91,0,0,1,388.33,897.88Zm-26.07-7.57h24.17q-.49-6.82-3.69-10.23a11,11,0,0,0-8.42-3.39,10.68,10.68,0,0,0-8.18,3.44Q362.95,883.58,362.26,890.31Z" transform="translate(-143.38 -85.32)"/><path class="cls-3" d="M460.45,894.61a31.46,31.46,0,0,1-1.86,11,24.1,24.1,0,0,1-5.37,8.64,23.55,23.55,0,0,1-8.4,5.54,29.55,29.55,0,0,1-11,1.93,28.87,28.87,0,0,1-10.89-2,24.07,24.07,0,0,1-13.75-14.19,31.39,31.39,0,0,1-1.83-11,31.73,31.73,0,0,1,1.86-11.08,24.17,24.17,0,0,1,5.32-8.6,23.57,23.57,0,0,1,8.4-5.49,31.79,31.79,0,0,1,21.87,0,23.65,23.65,0,0,1,13.8,14.17A31.62,31.62,0,0,1,460.45,894.61Zm-13.38,0c0-5.43-1.2-9.67-3.59-12.69a11.65,11.65,0,0,0-9.64-4.54,12,12,0,0,0-6.89,2,12.94,12.94,0,0,0-4.59,6,24.47,24.47,0,0,0-1.61,9.23,24.1,24.1,0,0,0,1.59,9.13,13,13,0,0,0,4.54,6,11.76,11.76,0,0,0,7,2.08,11.62,11.62,0,0,0,9.64-4.57Q447.07,902.67,447.07,894.61Z" transform="translate(-143.38 -85.32)"/><path class="cls-3" d="M529.44,911.6a78.61,78.61,0,0,0,6.94,4.18,24.91,24.91,0,0,1,5,3.22,4.55,4.55,0,0,1,1.22,3.39,4.65,4.65,0,0,1-1.44,3.13,4.59,4.59,0,0,1-3.49,1.56,10.22,10.22,0,0,1-4-1.07,45.44,45.44,0,0,1-5.57-3.13c-2.13-1.36-4.47-3-7-4.78q-7.08,3.61-17.38,3.61a39.89,39.89,0,0,1-15-2.66,29.33,29.33,0,0,1-11.11-7.67,32.86,32.86,0,0,1-6.76-11.89,47.4,47.4,0,0,1-2.28-15,46.21,46.21,0,0,1,2.37-15.13,32.54,32.54,0,0,1,6.86-11.72,29.75,29.75,0,0,1,10.94-7.4,39.38,39.38,0,0,1,14.65-2.56q11.13,0,19.12,4.51a29.32,29.32,0,0,1,12.08,12.85,43.82,43.82,0,0,1,4.1,19.55Q538.67,901.64,529.44,911.6Zm-11.37-7.91a22.1,22.1,0,0,0,4.46-8.2,37.88,37.88,0,0,0,1.44-11,33.61,33.61,0,0,0-2.53-13.62,18.91,18.91,0,0,0-7.26-8.71,19.91,19.91,0,0,0-10.81-3,19.54,19.54,0,0,0-8,1.64,17.52,17.52,0,0,0-6.35,4.76,22.67,22.67,0,0,0-4.2,8,36,36,0,0,0-1.54,10.91q0,12.36,5.76,19a18.4,18.4,0,0,0,14.55,6.67,20.06,20.06,0,0,0,7.43-1.52,39,39,0,0,0-5.74-3.41,35.71,35.71,0,0,1-4.71-2.64,3.07,3.07,0,0,1-1.27-2.64,3.42,3.42,0,0,1,1.22-2.59,3.91,3.91,0,0,1,2.68-1.12Q507.63,896.27,518.07,903.69Z" transform="translate(-143.38 -85.32)"/><path class="cls-3" d="M584.77,914.19v-1.71a30.27,30.27,0,0,1-5,5.08,18.3,18.3,0,0,1-5.77,3.05,23.24,23.24,0,0,1-7.12,1,18.35,18.35,0,0,1-8.67-2,14.52,14.52,0,0,1-5.93-5.52q-2.49-4.25-2.49-12.2V875.47q0-4,1.8-6a6.18,6.18,0,0,1,4.79-2,6.35,6.35,0,0,1,4.88,2c1.24,1.34,1.86,3.32,1.86,6v21.34a33,33,0,0,0,.78,7.79,9.35,9.35,0,0,0,2.8,4.93,8.05,8.05,0,0,0,5.5,1.78,11.24,11.24,0,0,0,6.35-2,11.73,11.73,0,0,0,4.34-5.23q1.13-2.82,1.12-12.4V875.47c0-2.64.62-4.62,1.86-6a6.31,6.31,0,0,1,4.83-2,6.18,6.18,0,0,1,4.79,2c1.2,1.32,1.81,3.31,1.81,6v38.62q0,3.81-1.74,5.72a5.75,5.75,0,0,1-4.47,1.9,5.81,5.81,0,0,1-4.51-2A8,8,0,0,1,584.77,914.19Z" transform="translate(-143.38 -85.32)"/><path class="cls-3" d="M617.29,861.31a7.05,7.05,0,0,1-4.77-1.71,6.65,6.65,0,0,1,.05-9.5,6.81,6.81,0,0,1,4.72-1.83,7,7,0,0,1,4.59,1.66,5.94,5.94,0,0,1,2,4.84,6.08,6.08,0,0,1-2,4.81A6.75,6.75,0,0,1,617.29,861.31Zm6.59,13.77v38.53c0,2.67-.64,4.68-1.91,6a6.3,6.3,0,0,1-4.83,2.05,6,6,0,0,1-4.76-2.1,8.86,8.86,0,0,1-1.83-6V875.47c0-2.64.61-4.62,1.83-6a6.17,6.17,0,0,1,4.76-2,6.4,6.4,0,0,1,4.83,2A7.76,7.76,0,0,1,623.88,875.08Z" transform="translate(-143.38 -85.32)"/><path class="cls-3" d="M673.88,882.79l-24.42,27.3h26.13a6.83,6.83,0,0,1,4.78,1.49,5,5,0,0,1,1.61,3.83,4.69,4.69,0,0,1-1.58,3.66,7,7,0,0,1-4.81,1.42H639.45c-2.54,0-4.43-.55-5.69-1.66a5.76,5.76,0,0,1-1.88-4.54,5.66,5.66,0,0,1,1.32-3.44c.88-1.16,2.7-3.28,5.47-6.38q4.4-4.87,8-8.83t6.66-7.4c2-2.3,3.75-4.24,5.1-5.84s2.44-3,3.25-4.1H641.85a19.92,19.92,0,0,1-6.21-.73c-1.4-.49-2.1-1.77-2.1-3.86a4.58,4.58,0,0,1,1.59-3.66,6.74,6.74,0,0,1,4.52-1.37h30.61a13.76,13.76,0,0,1,6.52,1.25c1.52.83,2.27,2.32,2.27,4.47a6.09,6.09,0,0,1-.44,2.22,8.41,8.41,0,0,1-1,1.88c-.36.49-.85,1.08-1.47,1.78S674.79,881.82,673.88,882.79Z" transform="translate(-143.38 -85.32)"/><path class="cls-3" d="M726,882.79l-24.42,27.3h26.13a6.83,6.83,0,0,1,4.78,1.49,5,5,0,0,1,1.61,3.83,4.69,4.69,0,0,1-1.58,3.66,7,7,0,0,1-4.81,1.42H691.55c-2.54,0-4.43-.55-5.69-1.66a5.76,5.76,0,0,1-1.88-4.54,5.66,5.66,0,0,1,1.32-3.44c.88-1.16,2.7-3.28,5.47-6.38q4.4-4.87,8-8.83t6.67-7.4c2.05-2.3,3.75-4.24,5.1-5.84s2.44-3,3.25-4.1H694a19.92,19.92,0,0,1-6.21-.73c-1.4-.49-2.1-1.77-2.1-3.86a4.58,4.58,0,0,1,1.59-3.66,6.73,6.73,0,0,1,4.52-1.37h30.61a13.76,13.76,0,0,1,6.52,1.25c1.52.83,2.27,2.32,2.27,4.47a6.09,6.09,0,0,1-.44,2.22,8.41,8.41,0,0,1-1,1.88c-.36.49-.85,1.08-1.47,1.78S726.89,881.82,726,882.79Z" transform="translate(-143.38 -85.32)"/></svg>